<?xml version="1.0" encoding="utf-8"?>
<!-- Generator: Adobe Illustrator 23.0.1, SVG Export Plug-In . SVG Version: 6.00 Build 0)  -->
<svg version="1.1" id="Слой_1" xmlns="http://www.w3.org/2000/svg" xmlns:xlink="http://www.w3.org/1999/xlink" x="0px" y="0px"
	 viewBox="0 0 16.4 16.4" style="enable-background:new 0 0 16.4 16.4;" xml:space="preserve">
<style type="text/css">
	.st0{fill:#B88B58;}
</style>
<g>
	<rect width="16.4" height="16.4"/>
</g>
<g>
	<path class="st0" d="M3.3,1.3c0.8,0.1,2.6,0.2,4.4,0.2c1.1,0,2-0.1,2.1-0.1c0.5-0.1,1-0.1,1.4-0.1c0.5,0,0.9,0,1.4,0
		c-0.2,1.4-0.5,2.9-0.7,4.4c-0.2-0.2-0.6-0.5-0.9-1c-0.3-0.5-0.4-1.1-0.4-1.4c-0.2,0-0.4-0.1-0.5-0.2C9.5,3.1,9.1,3,8.6,3
		C8.2,3,7.7,3,7.3,3c-0.1,3.1-0.1,6.2-0.2,9.3c1,0.2,2,0.4,3.1,0.7c0-1.1,0-2.3,0-3.5C9.9,9.3,9.5,9.2,9.1,9.1
		C8.8,9.1,8.5,9.1,8.2,9.1c0.2-0.5,0.4-1,0.7-1.6c0.8,0.2,1.9,0.4,3.1,0.2c0.4-0.1,0.8-0.1,1.1-0.2c-0.1,0.3-0.3,0.6-0.4,1
		c-0.1,0.3-0.2,0.6-0.2,0.8c0.1,1.4,0.2,2.7,0.3,4.1c-0.5,0.1-1.1,0.3-1.8,0.7c-0.6,0.4-1,0.7-1.3,1c-0.8-0.4-1.8-0.8-2.8-1.2
		c-1.2-0.4-2.3-0.7-3.3-0.9c0.2-0.4,0.7-1.1,0.8-2.1c0.3-1.6-0.2-2.8-0.5-3.3c0.2-0.4,0.5-1,0.7-1.7c0.4-1.3,0.2-2.4,0.1-3.1
		C4.4,2.7,4.1,2.5,3.8,2.1C3.5,1.8,3.4,1.5,3.3,1.3z"/>
</g>
</svg>
